<svg width="1246" height="1246" viewBox="0 0 1246 1246" fill="none" xmlns="http://www.w3.org/2000/svg">
<path d="M1226 623C1237.05 623 1246.03 631.958 1245.68 642.998C1241.95 759.215 1205.75 872.219 1141.01 969.12C1072.55 1071.57 975.25 1151.42 861.412 1198.58C747.573 1245.73 622.309 1258.07 501.459 1234.03C380.608 1209.99 269.6 1150.66 182.472 1063.53C95.3443 976.399 36.0093 865.391 11.9707 744.541C-12.0678 623.691 0.269697 498.426 47.4231 384.588C94.5766 270.75 174.428 173.45 276.88 104.994C373.782 40.2466 486.785 4.05235 603.002 0.320938C614.042 -0.033526 623 8.95431 623 20L623 178.57C623 189.616 614.04 198.521 603.006 199.041C526.077 202.669 451.444 227.173 387.2 270.099C317.402 316.736 263.002 383.023 230.878 460.578C198.754 538.132 190.349 623.471 206.726 705.802C223.102 788.133 263.525 863.759 322.883 923.117C382.24 982.475 457.866 1022.9 540.198 1039.27C622.529 1055.65 707.868 1047.25 785.422 1015.12C862.977 982.998 929.263 928.598 975.9 858.801C1018.83 794.556 1043.33 719.923 1046.96 642.994C1047.48 631.961 1056.38 623 1067.43 623H1226Z" fill="white"/>
<rect x="755" width="491" height="200" rx="20" fill="white"/>
<path d="M755 411C755 369.579 788.579 336 830 336H841C882.421 336 916 369.579 916 411V634C916 673.764 883.764 706 844 706H823C785.445 706 755 675.555 755 638V411Z" fill="white"/>
<rect x="755" y="490" width="162" height="391" rx="46" transform="rotate(-90 755 490)" fill="white"/>
<path d="M896.446 621.955C907.491 621.932 916.536 630.878 915.808 641.9C912.433 693.005 895.75 742.469 867.257 785.306C835.064 833.708 789.24 871.477 735.582 893.836C681.923 916.194 622.839 922.14 565.802 910.919C508.764 899.699 456.335 871.817 415.144 830.799C373.953 789.782 345.85 737.471 334.389 680.481C322.928 623.491 328.623 564.383 350.756 510.631C372.888 456.878 410.462 410.896 458.728 378.498C501.445 349.825 550.838 332.933 601.928 329.343C612.947 328.568 621.931 337.574 621.955 348.62L622.209 468.962C622.232 480.008 613.247 488.828 602.328 490.499C582.996 493.457 564.464 500.639 548.091 511.63C526.156 526.353 509.08 547.25 499.022 571.678C488.964 596.106 486.375 622.969 491.584 648.868C496.792 674.767 509.564 698.54 528.284 717.181C547.003 735.822 570.83 748.493 596.751 753.592C622.672 758.691 649.523 755.99 673.909 745.828C698.294 735.667 719.119 718.503 733.75 696.507C744.671 680.087 751.774 661.525 754.651 642.18C756.276 631.254 765.058 622.232 776.104 622.209L896.446 621.955Z" fill="white"/>
</svg>
